<svg width="981" height="147" viewBox="0 0 981 147" fill="none" xmlns="http://www.w3.org/2000/svg">
<rect width="981" height="147" fill="white"/>
<path d="M456 2H14C7.37258 2 2 7.37258 2 14V133C2 139.627 7.37258 145 14 145H456C462.627 145 468 139.627 468 133V14C468 7.37259 462.627 2 456 2Z" fill="black" stroke="black" stroke-width="4"/>
<path d="M967 2H525C518.373 2 513 7.37258 513 14V133C513 139.627 518.373 145 525 145H967C973.627 145 979 139.627 979 133V14C979 7.37259 973.627 2 967 2Z" fill="#F3F3F3" stroke="black" stroke-width="4"/>
<path d="M580.435 56.68C580.115 57.24 579.769 57.6533 579.395 57.92C579.049 58.16 578.609 58.28 578.075 58.28C577.515 58.28 576.902 58.08 576.235 57.68C575.595 57.2533 574.822 56.7867 573.915 56.28C573.009 55.7733 571.942 55.32 570.715 54.92C569.515 54.4933 568.089 54.28 566.435 54.28C564.942 54.28 563.635 54.4667 562.515 54.84C561.395 55.1867 560.449 55.68 559.675 56.32C558.929 56.96 558.369 57.7333 557.995 58.64C557.622 59.52 557.435 60.4933 557.435 61.56C557.435 62.92 557.809 64.0533 558.555 64.96C559.329 65.8667 560.342 66.64 561.595 67.28C562.849 67.92 564.275 68.4933 565.875 69C567.475 69.5067 569.115 70.0533 570.795 70.64C572.475 71.2 574.115 71.8667 575.715 72.64C577.315 73.3867 578.742 74.3467 579.995 75.52C581.249 76.6667 582.249 78.08 582.995 79.76C583.769 81.44 584.155 83.48 584.155 85.88C584.155 88.4933 583.702 90.9467 582.795 93.24C581.915 95.5067 580.609 97.4933 578.875 99.2C577.169 100.88 575.075 102.213 572.595 103.2C570.115 104.16 567.275 104.64 564.075 104.64C562.235 104.64 560.422 104.453 558.635 104.08C556.849 103.733 555.129 103.227 553.475 102.56C551.849 101.893 550.315 101.093 548.875 100.16C547.435 99.2267 546.155 98.1867 545.035 97.04L548.195 91.88C548.462 91.5067 548.809 91.2 549.235 90.96C549.662 90.6933 550.115 90.56 550.595 90.56C551.262 90.56 551.982 90.84 552.755 91.4C553.529 91.9333 554.449 92.5333 555.515 93.2C556.582 93.8667 557.822 94.48 559.235 95.04C560.675 95.5733 562.395 95.84 564.395 95.84C567.462 95.84 569.835 95.12 571.515 93.68C573.195 92.2133 574.035 90.12 574.035 87.4C574.035 85.88 573.649 84.64 572.875 83.68C572.129 82.72 571.129 81.92 569.875 81.28C568.622 80.6133 567.195 80.0533 565.595 79.6C563.995 79.1467 562.369 78.6533 560.715 78.12C559.062 77.5867 557.435 76.9467 555.835 76.2C554.235 75.4533 552.809 74.48 551.555 73.28C550.302 72.08 549.289 70.5867 548.515 68.8C547.769 66.9867 547.395 64.76 547.395 62.12C547.395 60.0133 547.809 57.96 548.635 55.96C549.489 53.96 550.715 52.1867 552.315 50.64C553.915 49.0933 555.889 47.8533 558.235 46.92C560.582 45.9867 563.275 45.52 566.315 45.52C569.729 45.52 572.875 46.0533 575.755 47.12C578.635 48.1867 581.089 49.68 583.115 51.6L580.435 56.68ZM633.262 90.36C633.848 90.36 634.368 90.5867 634.822 91.04L639.062 95.64C636.715 98.5467 633.822 100.773 630.382 102.32C626.968 103.867 622.862 104.64 618.062 104.64C613.768 104.64 609.902 103.907 606.462 102.44C603.048 100.973 600.128 98.9333 597.702 96.32C595.275 93.7067 593.408 90.5867 592.102 86.96C590.822 83.3333 590.182 79.3733 590.182 75.08C590.182 70.7333 590.875 66.76 592.262 63.16C593.648 59.5333 595.595 56.4133 598.102 53.8C600.635 51.1867 603.648 49.16 607.142 47.72C610.635 46.2533 614.502 45.52 618.742 45.52C622.955 45.52 626.688 46.2133 629.942 47.6C633.222 48.9867 636.008 50.8 638.302 53.04L634.702 58.04C634.488 58.36 634.208 58.64 633.862 58.88C633.542 59.12 633.088 59.24 632.502 59.24C632.102 59.24 631.688 59.1333 631.262 58.92C630.835 58.68 630.368 58.4 629.862 58.08C629.355 57.7333 628.768 57.36 628.102 56.96C627.435 56.56 626.662 56.2 625.782 55.88C624.902 55.5333 623.875 55.2533 622.702 55.04C621.555 54.8 620.222 54.68 618.702 54.68C616.115 54.68 613.742 55.1467 611.582 56.08C609.448 56.9867 607.608 58.32 606.062 60.08C604.515 61.8133 603.315 63.9467 602.462 66.48C601.608 68.9867 601.182 71.8533 601.182 75.08C601.182 78.3333 601.635 81.2267 602.542 83.76C603.475 86.2933 604.728 88.4267 606.302 90.16C607.875 91.8933 609.728 93.2267 611.862 94.16C613.995 95.0667 616.288 95.52 618.742 95.52C620.208 95.52 621.528 95.44 622.702 95.28C623.902 95.12 624.995 94.8667 625.982 94.52C626.995 94.1733 627.942 93.7333 628.822 93.2C629.728 92.64 630.622 91.96 631.502 91.16C631.768 90.92 632.048 90.7333 632.342 90.6C632.635 90.44 632.942 90.36 633.262 90.36ZM663.912 73.68C665.939 73.68 667.699 73.4267 669.192 72.92C670.712 72.4133 671.952 71.72 672.912 70.84C673.899 69.9333 674.632 68.8667 675.112 67.64C675.592 66.4133 675.832 65.0667 675.832 63.6C675.832 60.6667 674.859 58.4133 672.912 56.84C670.992 55.2667 668.046 54.48 664.072 54.48H657.192V73.68H663.912ZM691.592 104H681.872C680.032 104 678.699 103.28 677.872 101.84L665.712 83.32C665.259 82.6267 664.752 82.1333 664.192 81.84C663.659 81.5467 662.859 81.4 661.792 81.4H657.192V104H646.432V46.16H664.072C667.992 46.16 671.352 46.5733 674.152 47.4C676.979 48.2 679.286 49.3333 681.072 50.8C682.886 52.2667 684.219 54.0267 685.072 56.08C685.926 58.1067 686.352 60.3467 686.352 62.8C686.352 64.7467 686.059 66.5867 685.472 68.32C684.912 70.0533 684.086 71.6267 682.992 73.04C681.926 74.4533 680.592 75.6933 678.992 76.76C677.419 77.8267 675.619 78.6667 673.592 79.28C674.286 79.68 674.926 80.16 675.512 80.72C676.099 81.2533 676.632 81.8933 677.112 82.64L691.592 104ZM728.398 82.16L721.358 62.92C721.012 62.0667 720.652 61.0533 720.278 59.88C719.905 58.7067 719.532 57.44 719.158 56.08C718.812 57.44 718.452 58.72 718.078 59.92C717.705 61.0933 717.345 62.12 716.998 63L709.998 82.16H728.398ZM747.398 104H739.078C738.145 104 737.385 103.773 736.798 103.32C736.212 102.84 735.772 102.253 735.478 101.56L731.158 89.76H707.198L702.878 101.56C702.665 102.173 702.252 102.733 701.638 103.24C701.025 103.747 700.265 104 699.358 104H690.958L713.718 46.16H724.678L747.398 104ZM772.185 75.24C774.159 75.24 775.879 75 777.345 74.52C778.812 74.0133 780.025 73.3067 780.985 72.4C781.972 71.4667 782.705 70.3467 783.185 69.04C783.665 67.7067 783.905 66.2267 783.905 64.6C783.905 63.0533 783.665 61.6533 783.185 60.4C782.705 59.1467 781.985 58.08 781.025 57.2C780.065 56.32 778.852 55.6533 777.385 55.2C775.919 54.72 774.185 54.48 772.185 54.48H764.145V75.24H772.185ZM772.185 46.16C776.052 46.16 779.399 46.6133 782.225 47.52C785.052 48.4267 787.385 49.6933 789.225 51.32C791.065 52.9467 792.425 54.8933 793.305 57.16C794.212 59.4267 794.665 61.9067 794.665 64.6C794.665 67.4 794.199 69.9733 793.265 72.32C792.332 74.64 790.932 76.64 789.065 78.32C787.199 80 784.852 81.3067 782.025 82.24C779.225 83.1733 775.945 83.64 772.185 83.64H764.145V104H753.385V46.16H772.185ZM826.272 81.6V104H815.552V81.6L794.472 46.16H803.952C804.886 46.16 805.619 46.3867 806.152 46.84C806.712 47.2933 807.179 47.8667 807.552 48.56L818.112 67.88C818.726 69.0267 819.259 70.1067 819.712 71.12C820.192 72.1333 820.619 73.1467 820.992 74.16C821.339 73.1467 821.739 72.1333 822.192 71.12C822.646 70.1067 823.166 69.0267 823.752 67.88L834.272 48.56C834.566 47.9733 835.006 47.4267 835.592 46.92C836.179 46.4133 836.926 46.16 837.832 46.16H847.352L826.272 81.6ZM877.852 82.16L870.812 62.92C870.465 62.0667 870.105 61.0533 869.732 59.88C869.358 58.7067 868.985 57.44 868.612 56.08C868.265 57.44 867.905 58.72 867.532 59.92C867.158 61.0933 866.798 62.12 866.452 63L859.452 82.16H877.852ZM896.852 104H888.532C887.598 104 886.838 103.773 886.252 103.32C885.665 102.84 885.225 102.253 884.932 101.56L880.612 89.76H856.652L852.332 101.56C852.118 102.173 851.705 102.733 851.092 103.24C850.478 103.747 849.718 104 848.812 104H840.412L863.172 46.16H874.132L896.852 104ZM920.318 73.68C922.345 73.68 924.105 73.4267 925.598 72.92C927.118 72.4133 928.358 71.72 929.318 70.84C930.305 69.9333 931.038 68.8667 931.518 67.64C931.998 66.4133 932.238 65.0667 932.238 63.6C932.238 60.6667 931.265 58.4133 929.318 56.84C927.398 55.2667 924.452 54.48 920.478 54.48H913.598V73.68H920.318ZM947.998 104H938.278C936.438 104 935.105 103.28 934.278 101.84L922.118 83.32C921.665 82.6267 921.158 82.1333 920.598 81.84C920.065 81.5467 919.265 81.4 918.198 81.4H913.598V104H902.838V46.16H920.478C924.398 46.16 927.758 46.5733 930.558 47.4C933.385 48.2 935.692 49.3333 937.478 50.8C939.292 52.2667 940.625 54.0267 941.478 56.08C942.332 58.1067 942.758 60.3467 942.758 62.8C942.758 64.7467 942.465 66.5867 941.878 68.32C941.318 70.0533 940.492 71.6267 939.398 73.04C938.332 74.4533 936.998 75.6933 935.398 76.76C933.825 77.8267 932.025 78.6667 929.998 79.28C930.692 79.68 931.332 80.16 931.918 80.72C932.505 81.2533 933.038 81.8933 933.518 82.64L947.998 104Z" fill="black"/>
<path d="M91.5897 90.36C92.1764 90.36 92.6964 90.5867 93.1497 91.04L97.3897 95.64C95.043 98.5467 92.1497 100.773 88.7097 102.32C85.2964 103.867 81.1897 104.64 76.3897 104.64C72.0964 104.64 68.2297 103.907 64.7897 102.44C61.3764 100.973 58.4564 98.9333 56.0297 96.32C53.603 93.7067 51.7364 90.5867 50.4297 86.96C49.1497 83.3333 48.5097 79.3733 48.5097 75.08C48.5097 70.7333 49.203 66.76 50.5897 63.16C51.9764 59.5333 53.923 56.4133 56.4297 53.8C58.963 51.1867 61.9764 49.16 65.4697 47.72C68.963 46.2533 72.8297 45.52 77.0697 45.52C81.283 45.52 85.0164 46.2133 88.2697 47.6C91.5497 48.9867 94.3364 50.8 96.6297 53.04L93.0297 58.04C92.8164 58.36 92.5364 58.64 92.1897 58.88C91.8697 59.12 91.4164 59.24 90.8297 59.24C90.4297 59.24 90.0164 59.1333 89.5897 58.92C89.163 58.68 88.6964 58.4 88.1897 58.08C87.683 57.7333 87.0964 57.36 86.4297 56.96C85.763 56.56 84.9897 56.2 84.1097 55.88C83.2297 55.5333 82.203 55.2533 81.0297 55.04C79.883 54.8 78.5497 54.68 77.0297 54.68C74.443 54.68 72.0697 55.1467 69.9097 56.08C67.7764 56.9867 65.9364 58.32 64.3897 60.08C62.843 61.8133 61.643 63.9467 60.7897 66.48C59.9364 68.9867 59.5097 71.8533 59.5097 75.08C59.5097 78.3333 59.963 81.2267 60.8697 83.76C61.803 86.2933 63.0564 88.4267 64.6297 90.16C66.203 91.8933 68.0564 93.2267 70.1897 94.16C72.323 95.0667 74.6164 95.52 77.0697 95.52C78.5364 95.52 79.8564 95.44 81.0297 95.28C82.2297 95.12 83.323 94.8667 84.3097 94.52C85.323 94.1733 86.2697 93.7333 87.1497 93.2C88.0564 92.64 88.9497 91.96 89.8297 91.16C90.0964 90.92 90.3764 90.7333 90.6697 90.6C90.963 90.44 91.2697 90.36 91.5897 90.36Z" fill="#87CEEB"/>
<path d="M122.24 73.68C124.267 73.68 126.027 73.4267 127.52 72.92C129.04 72.4133 130.28 71.72 131.24 70.84C132.227 69.9333 132.96 68.8667 133.44 67.64C133.92 66.4133 134.16 65.0667 134.16 63.6C134.16 60.6667 133.187 58.4133 131.24 56.84C129.32 55.2667 126.374 54.48 122.4 54.48H115.52V73.68H122.24ZM149.92 104H140.2C138.36 104 137.027 103.28 136.2 101.84L124.04 83.32C123.587 82.6267 123.08 82.1333 122.52 81.84C121.987 81.5467 121.187 81.4 120.12 81.4H115.52V104H104.76V46.16H122.4C126.32 46.16 129.68 46.5733 132.48 47.4C135.307 48.2 137.614 49.3333 139.4 50.8C141.214 52.2667 142.547 54.0267 143.4 56.08C144.254 58.1067 144.68 60.3467 144.68 62.8C144.68 64.7467 144.387 66.5867 143.8 68.32C143.24 70.0533 142.414 71.6267 141.32 73.04C140.254 74.4533 138.92 75.6933 137.32 76.76C135.747 77.8267 133.947 78.6667 131.92 79.28C132.614 79.68 133.254 80.16 133.84 80.72C134.427 81.2533 134.96 81.8933 135.44 82.64L149.92 104ZM232.742 82.16L225.702 62.92C225.356 62.0667 224.996 61.0533 224.622 59.88C224.249 58.7067 223.876 57.44 223.502 56.08C223.156 57.44 222.796 58.72 222.422 59.92C222.049 61.0933 221.689 62.12 221.342 63L214.342 82.16H232.742ZM251.742 104H243.422C242.489 104 241.729 103.773 241.142 103.32C240.556 102.84 240.116 102.253 239.822 101.56L235.502 89.76H211.542L207.222 101.56C207.009 102.173 206.596 102.733 205.982 103.24C205.369 103.747 204.609 104 203.702 104H195.302L218.062 46.16H229.022L251.742 104ZM379.008 46.16L355.648 104H345.928L322.568 46.16H331.208C332.141 46.16 332.901 46.3867 333.488 46.84C334.074 47.2933 334.514 47.88 334.808 48.6L348.448 83.88C348.901 85.0267 349.328 86.2933 349.728 87.68C350.154 89.04 350.554 90.4667 350.928 91.96C351.248 90.4667 351.594 89.04 351.968 87.68C352.341 86.2933 352.754 85.0267 353.208 83.88L366.768 48.6C366.981 47.9867 367.394 47.4267 368.008 46.92C368.648 46.4133 369.421 46.16 370.328 46.16H379.008Z" fill="#FFA500"/>
<path d="M166.967 54.72V70.76H187.207V79.04H166.967V95.4H192.647V104H156.167V46.16H192.647V54.72H166.967Z" fill="#FF0000"/>
<path d="M298.129 55H280.689V104H269.929V55H252.489V46.16H298.129V55ZM316.498 104H305.698V46.16H316.498V104Z" fill="#00FFA3"/>
<path d="M395.795 54.72V70.76H416.035V79.04H395.795V95.4H421.475V104H384.995V46.16H421.475V54.72H395.795Z" fill="#24FF00"/>
</svg>
