<svg width="470" height="147" viewBox="0 0 470 147" fill="none" xmlns="http://www.w3.org/2000/svg">
<rect width="470" height="147" fill="white"/>
<path d="M456 2H14C7.37258 2 2 7.37258 2 14V133C2 139.627 7.37258 145 14 145H456C462.627 145 468 139.627 468 133V14C468 7.37259 462.627 2 456 2Z" fill="#F3F3F3" stroke="black" stroke-width="4"/>
<path d="M69.4353 56.68C69.1153 57.24 68.7686 57.6533 68.3953 57.92C68.0486 58.16 67.6086 58.28 67.0753 58.28C66.5153 58.28 65.902 58.08 65.2353 57.68C64.5953 57.2533 63.822 56.7867 62.9153 56.28C62.0086 55.7733 60.942 55.32 59.7153 54.92C58.5153 54.4933 57.0886 54.28 55.4353 54.28C53.942 54.28 52.6353 54.4667 51.5153 54.84C50.3953 55.1867 49.4486 55.68 48.6753 56.32C47.9286 56.96 47.3686 57.7333 46.9953 58.64C46.622 59.52 46.4353 60.4933 46.4353 61.56C46.4353 62.92 46.8086 64.0533 47.5553 64.96C48.3286 65.8667 49.342 66.64 50.5953 67.28C51.8486 67.92 53.2753 68.4933 54.8753 69C56.4753 69.5067 58.1153 70.0533 59.7953 70.64C61.4753 71.2 63.1153 71.8667 64.7153 72.64C66.3153 73.3867 67.742 74.3467 68.9953 75.52C70.2486 76.6667 71.2486 78.08 71.9953 79.76C72.7686 81.44 73.1553 83.48 73.1553 85.88C73.1553 88.4933 72.702 90.9467 71.7953 93.24C70.9153 95.5067 69.6086 97.4933 67.8753 99.2C66.1686 100.88 64.0753 102.213 61.5953 103.2C59.1153 104.16 56.2753 104.64 53.0753 104.64C51.2353 104.64 49.422 104.453 47.6353 104.08C45.8486 103.733 44.1286 103.227 42.4753 102.56C40.8486 101.893 39.3153 101.093 37.8753 100.16C36.4353 99.2267 35.1553 98.1867 34.0353 97.04L37.1953 91.88C37.462 91.5067 37.8086 91.2 38.2353 90.96C38.662 90.6933 39.1153 90.56 39.5953 90.56C40.262 90.56 40.982 90.84 41.7553 91.4C42.5286 91.9333 43.4486 92.5333 44.5153 93.2C45.582 93.8667 46.822 94.48 48.2353 95.04C49.6753 95.5733 51.3953 95.84 53.3953 95.84C56.462 95.84 58.8353 95.12 60.5153 93.68C62.1953 92.2133 63.0353 90.12 63.0353 87.4C63.0353 85.88 62.6486 84.64 61.8753 83.68C61.1286 82.72 60.1286 81.92 58.8753 81.28C57.622 80.6133 56.1953 80.0533 54.5953 79.6C52.9953 79.1467 51.3686 78.6533 49.7153 78.12C48.062 77.5867 46.4353 76.9467 44.8353 76.2C43.2353 75.4533 41.8086 74.48 40.5553 73.28C39.302 72.08 38.2886 70.5867 37.5153 68.8C36.7686 66.9867 36.3953 64.76 36.3953 62.12C36.3953 60.0133 36.8086 57.96 37.6353 55.96C38.4886 53.96 39.7153 52.1867 41.3153 50.64C42.9153 49.0933 44.8886 47.8533 47.2353 46.92C49.582 45.9867 52.2753 45.52 55.3153 45.52C58.7286 45.52 61.8753 46.0533 64.7553 47.12C67.6353 48.1867 70.0886 49.68 72.1153 51.6L69.4353 56.68ZM122.262 90.36C122.848 90.36 123.368 90.5867 123.822 91.04L128.062 95.64C125.715 98.5467 122.822 100.773 119.382 102.32C115.968 103.867 111.862 104.64 107.062 104.64C102.768 104.64 98.9016 103.907 95.4616 102.44C92.0482 100.973 89.1282 98.9333 86.7016 96.32C84.2749 93.7067 82.4082 90.5867 81.1016 86.96C79.8216 83.3333 79.1816 79.3733 79.1816 75.08C79.1816 70.7333 79.8749 66.76 81.2616 63.16C82.6482 59.5333 84.5949 56.4133 87.1016 53.8C89.6349 51.1867 92.6482 49.16 96.1416 47.72C99.6349 46.2533 103.502 45.52 107.742 45.52C111.955 45.52 115.688 46.2133 118.942 47.6C122.222 48.9867 125.008 50.8 127.302 53.04L123.702 58.04C123.488 58.36 123.208 58.64 122.862 58.88C122.542 59.12 122.088 59.24 121.502 59.24C121.102 59.24 120.688 59.1333 120.262 58.92C119.835 58.68 119.368 58.4 118.862 58.08C118.355 57.7333 117.768 57.36 117.102 56.96C116.435 56.56 115.662 56.2 114.782 55.88C113.902 55.5333 112.875 55.2533 111.702 55.04C110.555 54.8 109.222 54.68 107.702 54.68C105.115 54.68 102.742 55.1467 100.582 56.08C98.4482 56.9867 96.6082 58.32 95.0616 60.08C93.5149 61.8133 92.3149 63.9467 91.4616 66.48C90.6082 68.9867 90.1816 71.8533 90.1816 75.08C90.1816 78.3333 90.6349 81.2267 91.5416 83.76C92.4749 86.2933 93.7282 88.4267 95.3016 90.16C96.8749 91.8933 98.7282 93.2267 100.862 94.16C102.995 95.0667 105.288 95.52 107.742 95.52C109.208 95.52 110.528 95.44 111.702 95.28C112.902 95.12 113.995 94.8667 114.982 94.52C115.995 94.1733 116.942 93.7333 117.822 93.2C118.728 92.64 119.622 91.96 120.502 91.16C120.768 90.92 121.048 90.7333 121.342 90.6C121.635 90.44 121.942 90.36 122.262 90.36ZM152.912 73.68C154.939 73.68 156.699 73.4267 158.192 72.92C159.712 72.4133 160.952 71.72 161.912 70.84C162.899 69.9333 163.632 68.8667 164.112 67.64C164.592 66.4133 164.832 65.0667 164.832 63.6C164.832 60.6667 163.859 58.4133 161.912 56.84C159.992 55.2667 157.046 54.48 153.072 54.48H146.192V73.68H152.912ZM180.592 104H170.872C169.032 104 167.699 103.28 166.872 101.84L154.712 83.32C154.259 82.6267 153.752 82.1333 153.192 81.84C152.659 81.5467 151.859 81.4 150.792 81.4H146.192V104H135.432V46.16H153.072C156.992 46.16 160.352 46.5733 163.152 47.4C165.979 48.2 168.286 49.3333 170.072 50.8C171.886 52.2667 173.219 54.0267 174.072 56.08C174.926 58.1067 175.352 60.3467 175.352 62.8C175.352 64.7467 175.059 66.5867 174.472 68.32C173.912 70.0533 173.086 71.6267 171.992 73.04C170.926 74.4533 169.592 75.6933 167.992 76.76C166.419 77.8267 164.619 78.6667 162.592 79.28C163.286 79.68 163.926 80.16 164.512 80.72C165.099 81.2533 165.632 81.8933 166.112 82.64L180.592 104ZM217.398 82.16L210.358 62.92C210.012 62.0667 209.652 61.0533 209.278 59.88C208.905 58.7067 208.532 57.44 208.158 56.08C207.812 57.44 207.452 58.72 207.078 59.92C206.705 61.0933 206.345 62.12 205.998 63L198.998 82.16H217.398ZM236.398 104H228.078C227.145 104 226.385 103.773 225.798 103.32C225.212 102.84 224.772 102.253 224.478 101.56L220.158 89.76H196.198L191.878 101.56C191.665 102.173 191.252 102.733 190.638 103.24C190.025 103.747 189.265 104 188.358 104H179.958L202.718 46.16H213.678L236.398 104ZM261.185 75.24C263.159 75.24 264.879 75 266.345 74.52C267.812 74.0133 269.025 73.3067 269.985 72.4C270.972 71.4667 271.705 70.3467 272.185 69.04C272.665 67.7067 272.905 66.2267 272.905 64.6C272.905 63.0533 272.665 61.6533 272.185 60.4C271.705 59.1467 270.985 58.08 270.025 57.2C269.065 56.32 267.852 55.6533 266.385 55.2C264.919 54.72 263.185 54.48 261.185 54.48H253.145V75.24H261.185ZM261.185 46.16C265.052 46.16 268.399 46.6133 271.225 47.52C274.052 48.4267 276.385 49.6933 278.225 51.32C280.065 52.9467 281.425 54.8933 282.305 57.16C283.212 59.4267 283.665 61.9067 283.665 64.6C283.665 67.4 283.199 69.9733 282.265 72.32C281.332 74.64 279.932 76.64 278.065 78.32C276.199 80 273.852 81.3067 271.025 82.24C268.225 83.1733 264.945 83.64 261.185 83.64H253.145V104H242.385V46.16H261.185ZM315.272 81.6V104H304.552V81.6L283.472 46.16H292.952C293.886 46.16 294.619 46.3867 295.152 46.84C295.712 47.2933 296.179 47.8667 296.552 48.56L307.112 67.88C307.726 69.0267 308.259 70.1067 308.712 71.12C309.192 72.1333 309.619 73.1467 309.992 74.16C310.339 73.1467 310.739 72.1333 311.192 71.12C311.646 70.1067 312.166 69.0267 312.752 67.88L323.272 48.56C323.566 47.9733 324.006 47.4267 324.592 46.92C325.179 46.4133 325.926 46.16 326.832 46.16H336.352L315.272 81.6ZM366.852 82.16L359.812 62.92C359.465 62.0667 359.105 61.0533 358.732 59.88C358.358 58.7067 357.985 57.44 357.612 56.08C357.265 57.44 356.905 58.72 356.532 59.92C356.158 61.0933 355.798 62.12 355.452 63L348.452 82.16H366.852ZM385.852 104H377.532C376.598 104 375.838 103.773 375.252 103.32C374.665 102.84 374.225 102.253 373.932 101.56L369.612 89.76H345.652L341.332 101.56C341.118 102.173 340.705 102.733 340.092 103.24C339.478 103.747 338.718 104 337.812 104H329.412L352.172 46.16H363.132L385.852 104ZM409.318 73.68C411.345 73.68 413.105 73.4267 414.598 72.92C416.118 72.4133 417.358 71.72 418.318 70.84C419.305 69.9333 420.038 68.8667 420.518 67.64C420.998 66.4133 421.238 65.0667 421.238 63.6C421.238 60.6667 420.265 58.4133 418.318 56.84C416.398 55.2667 413.452 54.48 409.478 54.48H402.598V73.68H409.318ZM436.998 104H427.278C425.438 104 424.105 103.28 423.278 101.84L411.118 83.32C410.665 82.6267 410.158 82.1333 409.598 81.84C409.065 81.5467 408.265 81.4 407.198 81.4H402.598V104H391.838V46.16H409.478C413.398 46.16 416.758 46.5733 419.558 47.4C422.385 48.2 424.692 49.3333 426.478 50.8C428.292 52.2667 429.625 54.0267 430.478 56.08C431.332 58.1067 431.758 60.3467 431.758 62.8C431.758 64.7467 431.465 66.5867 430.878 68.32C430.318 70.0533 429.492 71.6267 428.398 73.04C427.332 74.4533 425.998 75.6933 424.398 76.76C422.825 77.8267 421.025 78.6667 418.998 79.28C419.692 79.68 420.332 80.16 420.918 80.72C421.505 81.2533 422.038 81.8933 422.518 82.64L436.998 104Z" fill="black"/>
</svg>
